<?xml version="1.0" encoding="UTF-8"?>
<svg version="1.1" viewBox="0 0 1600 1600" width="1280" height="1280" xmlns="http://www.w3.org/2000/svg">
<path transform="translate(912,262)" d="m0 0c0.727 0.087 1.45 0.174 2.2 0.264 20.4 2.46 40.5 6.32 60.7 10.3 1.95 0.385 3.89 0.764 5.84 1.14 21 4.1 41.5 9.77 62.1 15.7 1.91 0.545 3.82 1.08 5.73 1.62 32.7 9.27 65 21.3 95.8 35.4 3.16 1.44 6.34 2.84 9.52 4.24 20.9 9.18 41.1 19.4 61.1 30.4 1.1 0.601 2.2 1.2 3.34 1.82 22.9 12.6 44.9 26.7 66.7 41.2 0.634 0.419 1.27 0.838 1.92 1.27 8.25 5.48 16.1 11.5 23.9 17.5 5.16 3.96 10.4 7.86 15.6 11.7 8.64 6.26 16.8 12.9 24.7 20 2.97 2.63 6.01 5.19 9.03 7.76 5.19 4.43 10.3 8.97 15.3 13.6 2.15 1.96 4.32 3.89 6.51 5.8 6.84 5.97 13.6 12 20.1 18.4 0.931 0.917 1.86 1.83 2.82 2.78 2.05 2.29 2.05 2.29 2.05 4.29 1.32 0.66 2.64 1.32 4 2v2c0.99 0.33 1.98 0.66 3 1 2.19 1.94 2.19 1.94 4 4v2h2c1.37 1.4 1.37 1.4 3 3.38 2.81 3.32 5.76 6.4 8.88 9.44 4.31 4.26 8.13 8.74 11.9 13.5 2.16 2.65 4.41 5.19 6.71 7.72 3.84 4.22 7.47 8.58 11.1 13 2.24 2.72 4.53 5.37 6.84 8.02 5.88 6.73 11.2 13.7 16.3 21 2.49 3.56 5.05 7.08 7.59 10.6 0.819 1.14 0.819 1.14 1.65 2.3 2.81 3.89 5.64 7.75 8.54 11.6 8.41 11.1 15.7 22.7 22.9 34.7 2.59 4.31 5.29 8.55 7.99 12.8 1.46 2.31 2.92 4.62 4.38 6.93 0.811 1.28 1.62 2.56 2.44 3.84 7.91 12.4 14.4 25.6 21 38.7 1.81 3.53 3.65 7.05 5.55 10.5 8.48 15.5 15.3 31.8 22.3 48 0.506 1.17 1.01 2.35 1.53 3.56 1.99 4.61 3.96 9.23 5.93 13.9 0.806 1.88 1.62 3.76 2.54 5.59 0.641 5.68-1.29 9.52-3.69 14.5-0.829 1.78-1.66 3.56-2.48 5.34-0.679 1.46-0.679 1.46-1.37 2.96-2.46 5.4-4.78 10.9-7.12 16.3-7.61 17.7-15.7 35.1-24.8 52.1-1.41 2.64-2.81 5.29-4.2 7.94-12.8 24.2-12.8 24.2-20.1 35.1-2.44 3.66-4.76 7.4-7.1 11.1-0.769 1.22-0.769 1.22-1.55 2.46-2.37 3.75-4.73 7.51-7.04 11.3-6.32 10.3-13.3 20.1-20.5 29.9-1.15 1.56-2.3 3.13-3.45 4.7-2.33 3.17-4.66 6.33-7 9.49-2.42 3.27-4.81 6.56-7.2 9.85-5.7 7.86-11.4 15.4-18.1 22.5-3.23 3.48-6.17 7.17-9.15 10.9-2.59 3.15-5.3 6.18-8.04 9.21-2.04 2.33-3.94 4.73-5.84 7.17-6.6 8.09-14.1 15.3-21.5 22.6-1.46 1.45-2.92 2.9-4.38 4.35-2.67 2.65-5.34 5.3-8.01 7.95-0.576 0.57-1.15 1.14-1.74 1.73-1.47 1.46-2.95 2.91-4.42 4.37-2.3 2.27-2.3 2.27-4.51 5.11-2.52 3.07-5.37 5.58-8.39 8.15-2.59 2.23-5.09 4.54-7.61 6.85-3.6 3.29-7.26 6.45-11.1 9.5-4.2 3.39-8.19 6.94-12.1 10.6-8.52 7.95-17.6 15.1-26.9 22.1-3.9 2.9-7.78 5.83-11.6 8.8-16 12.4-32.6 23.8-49.7 34.7-2.51 1.61-5.02 3.23-7.53 4.86-11.6 7.47-23.3 14.5-35.4 21.3-2.29 1.29-4.58 2.58-6.86 3.89-6.61 3.77-13.2 7.4-20.1 10.7-2.53 1.27-5.03 2.56-7.53 3.9-11.3 6.08-22.8 11.6-34.6 16.8-1.31 0.584-1.31 0.584-2.64 1.18-25.2 11.3-50.8 21-76.8 30.2-1.64 0.58-3.28 1.16-4.92 1.75-36.2 12.9-73.8 21.6-112 28.7-1.01 0.191-2.02 0.382-3.06 0.579-21.1 3.98-42.3 6.92-63.6 9.23-0.993 0.108-1.99 0.216-3.01 0.327-17.9 1.93-35.8 3.32-53.7 4.11-1.25 0.0564-2.5 0.113-3.79 0.171-22.9 1-45.6 0.961-68.5 0.0791-1.1-0.0422-2.21-0.0845-3.34-0.128-20.5-0.811-40.9-2.48-61.3-4.88-3.2-0.37-6.41-0.703-9.62-1.04-16.9-1.89-33.6-4.94-50.4-8.08-1.11-0.207-2.22-0.414-3.36-0.627-22.7-4.25-45-9.6-67.3-15.7-2.73-0.746-5.47-1.48-8.2-2.22-12.6-3.41-24.9-7.33-37.3-11.6-0.989-0.34-0.989-0.34-2-0.686-28.4-9.76-55.9-20.9-83-33.6-4.43-2.05-8.89-3.99-13.4-5.88-5.73-2.43-11.2-5.17-16.6-8.23-6.38-3.55-12.8-7.05-19.2-10.4-15-7.84-29.5-16.1-43.8-25.3-3.19-2.05-6.38-4.08-9.58-6.11-14.2-9.02-28.1-18.2-41.6-28.4-3.05-2.3-6.11-4.59-9.17-6.88-4.24-3.17-8.46-6.35-12.7-9.53-0.963-0.722-0.963-0.722-1.94-1.46-11.7-8.79-22.7-18.3-33.4-28.2-2.56-2.29-5.19-4.45-7.88-6.6-14.5-11.7-27.5-25.3-40.6-38.4-2.52-2.52-5.05-5.03-7.57-7.54-1.99-1.97-3.97-3.95-5.95-5.93-1.37-1.37-2.75-2.73-4.12-4.1-15.1-15.2-15.1-15.2-18.5-22.7h-2c-1.35-1.49-2.63-3.04-3.88-4.62-3.58-4.48-7.24-8.86-11-13.2-9.52-11.1-18.2-22.6-26.7-34.5-2.89-4.03-5.83-8.01-8.79-12-9.85-13.3-18.8-26.8-27.3-41-3.19-5.29-6.44-10.5-9.8-15.7-7.18-11.1-13.4-22.7-19.5-34.4-1.96-3.76-3.95-7.5-5.97-11.2-12.1-22.4-22.1-45.6-31.9-69.2-0.366-0.875-0.732-1.75-1.11-2.65-0.338-0.814-0.676-1.63-1.02-2.47-1.03-2.42-1.03-2.42-2.87-5.45-1.11-2.74-1.11-2.74-0.585-5.42 0.732-1.64 0.732-1.64 1.48-3.32 0.697-1.69 1.39-3.37 2.09-5.06 0.853-2.01 1.71-4.01 2.57-6.01 0.462-1.08 0.924-2.16 1.4-3.27 0.98-2.29 1.96-4.57 2.95-6.86 1.47-3.43 2.94-6.86 4.4-10.3 5.35-12.5 11-24.6 17.5-36.5 1.72-3.21 3.33-6.47 4.94-9.73 1.37-2.75 2.75-5.5 4.12-8.25 0.419-0.84 0.839-1.68 1.27-2.54 7.17-14.3 15.1-27.8 23.7-41.3 2.76-4.37 5.44-8.8 8.13-13.2 6.88-11.3 14-22.3 21.9-32.9 1.12-1.53 2.24-3.06 3.36-4.59 2.34-3.2 4.7-6.38 7.06-9.57 2.42-3.26 4.81-6.53 7.2-9.81 6.39-8.78 12.9-17.3 20.1-25.5 1.88-2.17 3.71-4.36 5.56-6.56 3.75-4.46 7.54-8.86 11.5-13.2 2.93-3.22 5.69-6.51 8.38-9.94 3.13-3.98 6.48-7.53 10.1-11 1.7-1.7 3.2-3.45 4.7-5.33 0.701-0.825 1.4-1.65 2.12-2.5h2l1-3h2c0.308-0.796 0.308-0.796 0.623-1.61 1.95-3.39 4.66-5.94 7.42-8.66 0.6-0.599 1.2-1.2 1.82-1.82 1.27-1.27 2.54-2.53 3.82-3.79 1.93-1.91 3.85-3.83 5.77-5.75 6.02-6 12-11.9 18.6-17.4 1.15-0.985 2.31-1.97 3.46-2.96 1.12-0.952 2.24-1.9 3.36-2.86 4.36-3.72 8.66-7.49 12.9-11.4 5.27-4.82 10.7-9.34 16.3-13.8 1.12-0.912 2.24-1.83 3.36-2.74 7.66-6.22 15.5-12.2 23.5-18 4.58-3.34 9.09-6.74 13.6-10.2 8.98-7.01 18.3-13.3 28-19.4 2.8-1.77 5.59-3.56 8.38-5.34 5.42-3.47 10.9-6.92 16.3-10.4 0.651-0.411 1.3-0.822 1.97-1.25 14.2-8.91 28.9-16.8 43.6-24.7 5.53-2.96 11-5.98 16.4-9.21 9.7-5.61 20.1-9.79 30.4-14.3 3.62-1.59 7.22-3.23 10.8-4.89 15.2-6.98 30.5-13.1 46.2-18.7 4.34-1.54 8.65-3.15 13-4.79 18.2-6.93 36.7-12.6 55.5-17.6 2.11-0.572 4.22-1.15 6.33-1.74 34.9-9.65 70.9-17.3 107-21.9 0.747-0.0954 1.49-0.191 2.26-0.289 23.9-3.05 47.7-5.56 71.7-6.71 1.59-0.0846 1.59-0.0846 3.2-0.171 51.7-2.75 103-0.011 155 6.17zm-326 242c-1.96 1.5-3.94 2.97-5.92 4.44-7.37 5.51-14.5 11.1-21.2 17.4-2.07 1.93-4.17 3.78-6.31 5.62-4.77 4.15-9.25 8.57-13.7 13-0.838 0.838-1.68 1.68-2.54 2.54-4.98 5.03-9.72 10.1-14 15.7-1.71 2.17-3.48 4.22-5.32 6.28-3.62 4.11-6.86 8.41-10 12.9-0.562 0.784-1.12 1.57-1.7 2.38-4.88 6.86-9.49 13.8-13.9 21-0.349 0.556-0.699 1.11-1.06 1.69-48.4 77.1-63.4 171-45.2 276 10.7 46.7 30.1 91.1 58.3 130 0.733 1.02 1.47 2.03 2.22 3.08 2.22 3.01 4.48 5.97 6.78 8.92 0.461 0.592 0.921 1.18 1.4 1.79 8.6 11 17.9 21.2 27.6 31.2 0.513 0.529 1.03 1.06 1.55 1.6 5.26 5.41 10.7 10.5 16.4 15.4 0.909 0.798 1.82 1.6 2.75 2.42 13.5 11.7 28.2 22 43.2 31.6 0.707 0.457 1.41 0.914 2.14 1.38 19 12.2 39.7 21.7 60.9 29.6 1.51 0.603 3.01 1.21 4.52 1.81 83.1 32.6 178 27.9 273-6.87 6.31-2.82 12.5-5.84 18.7-8.95 1.38-0.686 1.38-0.686 2.8-1.39 20.7-10.3 39.9-22.5 58.2-36.6 0.554-0.428 1.11-0.855 1.68-1.3 6.73-5.25 13-11 19.2-16.8 2.59-2.42 5.24-4.75 7.92-7.07 11-9.89 21.1-21.1 30.2-32.8 0.772-0.977 1.54-1.95 2.34-2.96 10.5-13.4 20.1-27.2 28.5-42 1.08-1.89 2.19-3.76 3.32-5.63 29.8-50.1 44.8-111 45.8-169 0.0205-0.772 0.0409-1.54 0.062-2.34 0.87-34.4-3.34-69.4-12.1-103-0.234-0.908-0.468-1.82-0.708-2.75-8.62-33-22.2-65.4-40.3-94.2-0.388-0.624-0.776-1.25-1.18-1.89-4.95-7.95-10.2-15.6-15.8-23.1-0.939-1.28-1.88-2.57-2.82-3.85-5.27-7.17-10.6-14-16.7-20.5-1.94-2.08-3.81-4.19-5.66-6.35-4.15-4.76-8.56-9.25-13-13.7-0.84-0.84-1.68-1.68-2.55-2.54-5.81-5.75-11.7-11-18.2-16-1.69-1.41-3.38-2.83-5.06-4.25-13.5-11-28-20.8-42.9-29.8-0.694-0.418-1.39-0.836-2.1-1.27-41.1-24.5-87.6-39.3-135-45.7-0.816-0.112-1.63-0.224-2.47-0.339-15.8-2.12-31.6-2.87-47.5-2.85-1.14 9.06e-4 -1.14 9.06e-4 -2.3 0.00183-74.3 0.159-152 22.3-212 67.9z"/>
<path transform="translate(955 644)" d="m0 0c5.38 5.21 10 11 14.7 16.9 1.17 1.43 1.17 1.43 2.37 2.89 36.8 45.9 50.1 106 44.1 164-2.55 21.8-8.55 43-17.5 63-0.359 0.814-0.717 1.63-1.09 2.47-4.79 10.8-10.1 20.9-16.9 30.5-0.539 0.764-1.08 1.53-1.63 2.32-1.8 2.53-3.61 5.05-5.43 7.56-0.848 1.18-0.848 1.18-1.71 2.38-3.48 4.73-7.2 8.92-11.4 13-1.67 1.65-3.14 3.36-4.59 5.2-3.29 3.93-7.2 6.99-11.2 10.2-2.34 1.89-4.57 3.82-6.8 5.82-3.97 3.49-8.13 6.49-12.5 9.39-0.781 0.514-1.56 1.03-2.37 1.56-22.4 14.5-46.2 24.5-72.3 30.6-0.703 0.166-1.41 0.332-2.13 0.502-56.8 13.1-118 2.62-167-27.6-10.8-7-20.8-15-30.2-23.7-2.02-1.86-4.06-3.63-6.18-5.37-3.84-3.27-7.01-7.02-10.2-10.9-1.11-1.26-1.11-1.26-2.24-2.55-37.2-43.1-53.8-101-50.6-157 3.31-45.2 18.7-89.2 47.8-124 0.717-0.867 0.717-0.867 1.45-1.75 9.3-11.2 19-21.3 30.6-30.2 0.808-0.63 0.808-0.63 1.63-1.27 32.7-25.3 70.4-39.8 111-44.7 1.09-0.133 2.18-0.266 3.3-0.402 66.3-6.41 129 17 177 61.5z"/>
</svg>
